<svg xmlns="http://www.w3.org/2000/svg" width="40.323" height="54.588"><g fill="#fffcf2"><path d="M20.177 30.206c2.286-2.865 4.541-5.7 6.827-8.564-.579 3.718.823 6.279 4.267 7.711-.853 1.067-1.676 2.1-2.53 3.17-1.737 2.194-3.535 4.358-5.212 6.583a4.205 4.205 0 01-6.858-.152c-2.194-3.017-4.633-5.882-6.98-8.808a22.278 22.278 0 00-1.585-1.859v22.13a4.056 4.056 0 01-8.107.274V16.338a3.979 3.979 0 012.713-3.657 4.034 4.034 0 014.48 1.25 855.445 855.445 0 016.522 8.2c2.042 2.56 4.084 5.151 6.157 7.711a2.745 2.745 0 00.3.366" fill-rule="evenodd"/><path d="M30.113 17.679c1.067-1.311 2.042-2.56 3.048-3.81a3.83 3.83 0 012.1-1.311 4.056 4.056 0 015.059 3.9v34.138a4.055 4.055 0 01-8.107.091c-.03-1.372 0-2.774 0-4.145V29.504a6.3 6.3 0 006.1-2.713 5.939 5.939 0 00.945-4.938 6.4 6.4 0 00-9.144-4.176" fill-rule="evenodd"/><path data-name="Path 1" d="M12.709 10.638h-.183a5.311 5.311 0 01-5.059-5.395 5.3 5.3 0 019.174-3.566 5.21 5.21 0 011.432 3.84 5.284 5.284 0 01-5.364 5.121zM8.96 5.304a3.631 3.631 0 001.036 2.621 3.733 3.733 0 002.56 1.189 3.8 3.8 0 003.993-3.657 3.749 3.749 0 00-3.718-3.932A3.816 3.816 0 008.96 5.304z"/><path d="M37.153 23.287a4.038 4.038 0 11-4.023-4.054 4.033 4.033 0 014.023 4.054" fill-rule="evenodd"/></g></svg>