<svg xmlns="http://www.w3.org/2000/svg" width="237" height="117"><g data-name="Group 648"><g data-name="Group 641" fill="none"><g data-name="Subtraction 1"><path d="M119 59H0a59.307 59.307 0 011.241-11.9 58.67 58.67 0 013.488-11.073A59.108 59.108 0 0110.224 26a59.687 59.687 0 017.266-8.731 59.861 59.861 0 018.8-7.2 59.6 59.6 0 0110.093-5.438A59.425 59.425 0 0147.531 1.2 60.242 60.242 0 0159.5 0a60.243 60.243 0 0111.969 1.2 59.427 59.427 0 0111.15 3.436 59.6 59.6 0 0110.093 5.438 59.862 59.862 0 018.8 7.2A59.688 59.688 0 01108.776 26a59.107 59.107 0 015.5 10.022 58.671 58.671 0 013.483 11.078A59.309 59.309 0 01119 59z"/><path d="M117.988 58a57.669 57.669 0 00-10.039-31.432 58.686 58.686 0 00-15.794-15.666 58.601 58.601 0 00-9.924-5.346A58.424 58.424 0 0071.27 2.178 59.24 59.24 0 0059.5 1c-3.962 0-7.922.396-11.769 1.178A58.422 58.422 0 0036.77 5.556a58.6 58.6 0 00-18.575 12.428 58.686 58.686 0 00-7.144 8.584A57.667 57.667 0 001.011 58h116.977M119 59H0a58.67 58.67 0 0110.224-32.995 59.688 59.688 0 0116.064-15.933 59.602 59.602 0 0110.093-5.438 59.426 59.426 0 0111.15-3.436A60.242 60.242 0 0159.5 0c4.03 0 8.056.403 11.969 1.198a59.428 59.428 0 0111.15 3.436 59.604 59.604 0 0118.89 12.64 59.688 59.688 0 017.267 8.73A58.671 58.671 0 01119 59V59z" fill="#fffcf2"/></g><g data-name="Subtraction 2"><path d="M118 58h119a59.307 59.307 0 01-1.241 11.9 58.67 58.67 0 01-3.488 11.073A59.108 59.108 0 01226.776 91a59.687 59.687 0 01-7.266 8.731 59.861 59.861 0 01-8.8 7.2 59.6 59.6 0 01-10.093 5.438 59.425 59.425 0 01-11.148 3.431A60.242 60.242 0 01177.5 117a60.243 60.243 0 01-11.969-1.2 59.427 59.427 0 01-11.15-3.436 59.6 59.6 0 01-10.093-5.438 59.862 59.862 0 01-8.8-7.2A59.688 59.688 0 01128.224 91a59.107 59.107 0 01-5.5-10.022 58.671 58.671 0 01-3.483-11.078A59.309 59.309 0 01118 58z"/><path d="M119.012 59a57.669 57.669 0 0010.039 31.432 58.686 58.686 0 0015.794 15.666 58.601 58.601 0 009.924 5.346 58.424 58.424 0 0010.962 3.378A59.24 59.24 0 00177.5 116c3.962 0 7.922-.396 11.769-1.178a58.422 58.422 0 0010.961-3.378 58.6 58.6 0 0018.575-12.428 58.686 58.686 0 007.144-8.584A57.667 57.667 0 00235.989 59H119.011M118 58h119a59.307 59.307 0 01-1.241 11.896 58.67 58.67 0 01-8.983 21.1 59.688 59.688 0 01-16.064 15.932 59.602 59.602 0 01-10.093 5.438 59.426 59.426 0 01-11.15 3.436A60.242 60.242 0 01177.5 117c-4.03 0-8.056-.403-11.969-1.198a59.428 59.428 0 01-11.15-3.436 59.604 59.604 0 01-18.89-12.64 59.688 59.688 0 01-7.267-8.73A58.671 58.671 0 01118 58V58z" fill="#fffcf2"/></g></g></g></svg>